<?xml version="1.0" encoding="iso-8859-1"?>
<!-- Generator: Adobe Illustrator 19.0.0, SVG Export Plug-In . SVG Version: 6.00 Build 0)  -->
<svg version="1.1" id="Capa_1" fill="#FFF" xmlns="http://www.w3.org/2000/svg" xmlns:xlink="http://www.w3.org/1999/xlink" x="0px" y="0px"
	 viewBox="0 0 404 404" style="enable-background:new 0 0 404 404;" xml:space="preserve">
<g>
	<g>
		<g>
			<path d="M169,208.9h65.6c16.6,0.1,30.3-12.8,31.3-29.4l3.9-62.1c0-0.7,0.1-1.4,0.3-2.1c-7.5-3-15.2-5.5-23.1-7.5
				c-3.8-1-6.8-4.2-7.4-8.1L234.3,67h-64.8l-5.3,32.7c-0.6,4-3.5,7.2-7.4,8.2c-7.8,1.9-15.4,4.4-23.1,7.3l4,64.3
				C138.7,196,152.4,208.9,169,208.9z"/>
			<rect y="300" width="404" height="37"/>
			<path d="M289.6,124.4l-3.5,56.4c-1.7,27.1-24.1,48.2-51.3,48.2h-65.6c-27.2,0-49.6-21.1-51.2-48.2l-3.5-56.3
				c-27.9,15.2-51.4,37.3-68.3,64.2C28.9,216.1,19,247.6,17.5,280h369C383.9,214.7,347.1,155.6,289.6,124.4z"/>
		</g>
	</g>
</g>
<g>
</g>
<g>
</g>
<g>
</g>
<g>
</g>
<g>
</g>
<g>
</g>
<g>
</g>
<g>
</g>
<g>
</g>
<g>
</g>
<g>
</g>
<g>
</g>
<g>
</g>
<g>
</g>
<g>
</g>
</svg>
