<svg height="512" viewBox="0 0 60 60" width="512" xmlns="http://www.w3.org/2000/svg"><g id="Page-1" fill="none" fill-rule="evenodd"><g id="041---Rekt" fill-rule="nonzero"><g id="Icons" transform="translate(1 1)"><path id="Rectangle-path" d="m0 37h8v4h-8z" fill="#ff5722"/><path id="Shape" d="m12 30v18c0-1.6568542-1.3431458-3-3-3-.34157656-.0021256-.68060416.0588994-1 .18v-12.36c.31939584.1211006.65842344.1821256 1 .18 1.6568542 0 3-1.3431458 3-3z" fill="#ff9801"/><path id="Shape" d="m58 39-8 6-3-6 3-6z" fill="#7f8e94"/><path id="Shape" d="m50 33-.818 1.636 5.818 4.364-5.818 4.364.818 1.636 8-6z" fill="#545c60"/><path id="Shape" d="m47 39 3 6-38-2v-8l8.7-.46c.1962829.4898032.2980748 1.0123349.3 1.54v1.99c.022216.53163.4681574.9463556 1 .93h14c.2560511.0097219.5054376-.0828963.6930717-.257396s.2980754-.4165214.3069283-.672604v-1.99c.0015274-.8775325.2816532-1.7319164.8-2.44l12.2-.64z" fill="#607d8b"/><path id="Shape" d="m50 33-3.081.162-2.919 5.838 2.919 5.838 3.081.162-3-6z" fill="#37474f"/><path id="Shape" d="m39 44.42v9.58c-.0081672 1.1011688-.8988312 1.9918328-2 2-1.0973873-.0171498-1.9828502-.9026127-2-2v-1c0-1.1045695-.8954305-2-2-2s-2 .8954305-2 2v3c0 1.1045695-.8954305 2-2 2s-2-.8954305-2-2v-6c0-1.1045695-.8954305-2-2-2s-2 .8954305-2 2v1c0 1.1045695-.8954305 2-2 2s-2-.8954305-2-2v-7.63l17 .89z" fill="#f44335"/><path id="Shape" d="m36 44.26-17-.89v.157l14 .733 3 .16v9.58c.000428.4794513-.1757937.9422556-.495 1.3.3729134.4395227.9186147.695035 1.495.7 1.1011688-.0081672 1.9918328-.8988312 2-2v-9.58z" fill="#c81e1e"/><path id="Shape" d="m12 30c0 1.6568542-1.3431458 3-3 3-.34157656.0021256-.68060416-.0588994-1-.18-1.43939791-.5089108-2.2670245-2.0176639-1.92269036-3.505041.34433415-1.487377 1.75079228-2.47893 3.26739562-2.3035139s2.65958124 1.4618466 2.65529474 2.9885549z" fill="#ffdc00"/><path id="Shape" d="m12 48c.0042865 1.5267083-1.1386914 2.8131388-2.65529474 2.9885549s-2.92306147-.8161369-3.26739562-2.3035139c-.34433414-1.4873771.48329245-2.9961302 1.92269036-3.505041.31939584-.1211006.65842344-.1821256 1-.18 1.6568542 0 3 1.3431458 3 3z" fill="#ffdc00"/><path id="Shape" d="m44.68 20.54c-1.3354584 1.7457036-1.9606771 3.9321825-1.75 6.12.0500824.377884.0734737.7588275.07 1.14.0489311 1.8429758-1.1244184 3.4970726-2.88 4.06-.92916.3565574-1.735021.9748473-2.32 1.78-.5183468.7080836-.7984726 1.5624675-.8 2.44v1.99c-.0088529.2560826-.1192942.4981043-.3069283.672604s-.4370206.2671179-.6930717.257396h-14c-.5318426.0163556-.977784-.39837-1-.93v-1.99c-.0019252-.5276651-.1037171-1.0501968-.3-1.54-.5334734-1.241718-1.552749-2.2103912-2.82-2.68-1.7555816-.5629274-2.9289311-2.2170242-2.88-4.06-.0034737-.3811725.0199176-.762116.07-1.14.2106771-2.1878175-.4145416-4.3742964-1.75-6.12-1.5651635-2.2054512-2.3786333-4.8562407-2.32-7.56 0-10.2 11.06-12.98 18-12.98s18 2.78 18 12.98c.0586333 2.7037593-.7548365 5.3545488-2.32 7.56z" fill="#cfd8dc"/><path id="Shape" d="m47 12.98c0-10.2-11.06-12.98-18-12.98-.481 0-.984.015-1.5.043 6.923.38 16.5 3.444 16.5 12.937.0586333 2.7037593-.7548365 5.3545488-2.32 7.56-1.3354584 1.7457036-1.9606771 3.9321825-1.75 6.12.0500824.377884.0734737.7588275.07 1.14.0489311 1.8429758-1.1244184 3.4970726-2.88 4.06-1.8076652.6328326-3.0448745 2.3062375-3.12 4.22v1.99c-.0088529.2560826-.1192942.4981043-.3069283.672604s-.4370206.2671179-.6930717.257396h3c.2560511.0097219.5054376-.0828963.6930717-.257396s.2980754-.4165214.3069283-.672604v-1.99c.0751255-1.9137625 1.3123348-3.5871674 3.12-4.22 1.7555816-.5629274 2.9289311-2.2170242 2.88-4.06.0034737-.3811725-.0199176-.762116-.07-1.14-.2106771-2.1878175.4145416-4.3742964 1.75-6.12 1.5651635-2.2054512 2.3786333-4.8562407 2.32-7.56z" fill="#9e9e9e"/><path id="Shape" d="m27 5.106c-.5328742.00006669-.9721942-.41773146-.9988712-.94993753-.026677-.53220608.3686613-.99184174.8988712-1.04506247 1-.096 1.744-.111 2.1-.111.5522847 0 1 .44771525 1 1s-.4477153 1-1 1c-.258 0-.958.01-1.9.1-.036 0-.069.006-.1.006z" fill="#f5f5f5"/><path id="Shape" d="m15 15c-.5522847 0-1-.4477153-1-1 0-5 3.018-8.5 8.727-10.118.5301274-.14746945 1.0797921.16106088 1.2300142.69041488.1502221.52935401-.1554479 1.08061446-.6840142 1.23358512-4.826 1.369-7.273 4.126-7.273 8.194 0 .5522847-.4477153 1-1 1z" fill="#f5f5f5"/><g fill="#607d8b"><circle id="Oval" cx="22" cy="21" r="4"/><circle id="Oval" cx="36" cy="21" r="4"/></g></g><g id="Icons_copy" fill="#000"><path id="Shape" d="m27.445 31.832c.2206502.1472282.4907558.2007572.7508787.1488077.2601229-.0519496.488948-.2051208.6361213-.4258077l1.168-1.755 1.168 1.752c.1982824.297245.5400812.4661282.8966441.4430331s.6737195-.2346599.832-.555c.1582805-.32034.1336383-.7007881-.0646441-.9980331l-2-3c-.1961648-.2622542-.5044975-.4166681-.832-.4166681s-.6358352.1544139-.832.4166681l-2 3c-.1481809.2208813-.2022603.4916955-.1502775.7525477.0519828.2608523.2057442.4902479.4272775.6374523z"/><path id="Shape" d="m28 22c0-2.7614237-2.2385763-5-5-5s-5 2.2385763-5 5 2.2385763 5 5 5c2.7600532-.0033061 4.9966939-2.2399468 5-5zm-8 0c0-1.2133867.7309265-2.3072956 1.8519497-2.7716386s2.4113767-.2076757 3.2693706.6503183c.857994.8579939 1.1146613 2.1483474.6503183 3.2693706s-1.5582519 1.8519497-2.7716386 1.8519497c-1.6568542 0-3-1.3431458-3-3z"/><path id="Shape" d="m37 27c2.7614237 0 5-2.2385763 5-5s-2.2385763-5-5-5-5 2.2385763-5 5c.0033061 2.7600532 2.2399468 4.9966939 5 5zm0-8c1.6568542 0 3 1.3431458 3 3s-1.3431458 3-3 3-3-1.3431458-3-3 1.3431458-3 3-3z"/><path id="Shape" d="m51.6 33.2c-.1877989-.1397961-.4181148-.2104452-.652-.2l-8.761.459c1.7666626-.8682305 2.8655023-2.6862184 2.813-4.654.0005828-.4247599-.0241276-.8491777-.074-1.271-.1824097-1.9330567.3762693-3.8632334 1.563-5.4 1.6836291-2.382926 2.5632631-5.2407732 2.511-8.158 0-11.033-11.943-13.976-19-13.976s-19 2.943-19 13.976c-.0520495 2.9168868.8275745 5.774351 2.511 8.157 1.18664 1.5368126 1.7453083 3.4669529 1.563 5.4-.0499902.4221467-.0747009.8469043-.074 1.272-.048256 2.2501277 1.3740952 4.2695502 3.509 4.982.4989817.1971166.9573182.4845939 1.352.848l-5.861.31v-3.945c.0097537-1.9436689-1.3791405-3.6130245-3.2921633-3.9569544-1.91302281-.3439299-3.7963956.7371261-4.46424983 2.5624794-.66785423 1.8253534.0731394 3.8666038 1.75641313 4.838475v2.556h-6v-1c0-.5522847-.44771525-1-1-1s-1 .4477153-1 1v8c0 .5522847.44771525 1 1 1s1-.4477153 1-1v-1h6v2.556c-1.67475398.973723-2.40897108 3.0091016-1.74149559 4.8277313.6674755 1.8186297 2.54405979 2.8957891 4.45108569 2.5549232 1.9070259-.3408658 3.2942676-2.0014084 3.2904099-3.9386545v-3.946l5 .264v6.682c0 1.6568542 1.3431458 3 3 3 1.6534434-.0082058 2.9917942-1.3465566 3-3v-1c0-.5522847.4477153-1 1-1 .2693445-.0003954.526929.110308.712.306.1865985.1823963.2906276.4330776.288.694v6c0 1.6568542 1.3431458 3 3 3 1.6534434-.0082058 2.9917942-1.3465566 3-3v-3c0-.5522847.4477153-1 1-1 .2693445-.0003954.526929.110308.712.306.1865985.1823963.2906276.4330776.288.694v1c0 1.6568542 1.3431458 3 3 3 1.6534434-.0082058 2.9917942-1.3465566 3-3v-8.525l9.947.525h.053c.2163702 0 .4269038-.0701779.6-.2l8-6c.2518058-.1888544.4-.4852427.4-.8s-.1481942-.6111456-.4-.8zm-1.982 7.8h6.382l-4.641 3.481zm0-2 1.741-3.481 4.641 3.481zm-32.618-10.195c-.0008001-.343897.0192366-.6875265.06-1.029.2442578-2.4365523-.4467331-4.8748603-1.933-6.821-1.4324018-2.0413025-2.1774085-4.4857792-2.127-6.979 0-11.64 15.26-11.976 17-11.976s17 .336 17 11.976c.0504085 2.4932208-.6945982 4.9376975-2.127 6.979-1.4861118 1.9458326-2.1770995 4.3837717-1.933 6.82.040733.341811.0607695.6857714.06 1.03.0528105 1.4315754-.8711998 2.716958-2.245 3.123-2.192212.779204-3.682648 2.82255-3.755 5.148v1.924l-2 .01v-3.01c0-.5522847-.4477153-1-1-1s-1 .4477153-1 1v3.021l-2 .01v-3.031c0-.5522847-.4477153-1-1-1s-1 .4477153-1 1v3.042l-2 .01v-3.052c0-.5522847-.4477153-1-1-1s-1 .4477153-1 1v3.063l-2 .01v-2c-.072352-2.32545-1.562788-4.368796-3.755-5.148-1.3726847-.4057659-2.2964134-1.6895225-2.245-3.12zm-7 .195c1.1045695 0 2 .8954305 2 2s-.8954305 2-2 2-2-.8954305-2-2 .8954305-2 2-2zm-8 12v-2h6v2zm8-6c.7042532-.0041446 1.3946535-.1960759 2-.556v11.112c-.6053465-.3599241-1.2957468-.5518554-2-.556zm0 16c-1.1045695 0-2-.8954305-2-2s.8954305-2 2-2 2 .8954305 2 2-.8954305 2-2 2zm4-10h4c.5522847 0 1-.4477153 1-1s-.4477153-1-1-1h-4v-2.051l6.957-.368c.0278784.1635423.0422602.3291002.043.495v2c.0229692 1.0827151.9172075 1.9429723 2 1.924h14c1.0839397.0189586 1.9786601-.8431046 2-1.927v-2c.0031772-.5116697.1319474-1.0147318.375-1.465l9.963-.522-1.956 3.914h-5.382c-.5522847 0-1 .4477153-1 1s.4477153 1 1 1h5.382l1.955 3.911-35.337-1.86zm25 14c.0006712.2696918-.1100548.5276905-.306.713-.1830903.1854514-.4334037.2889672-.694.287-.5522847 0-1-.4477153-1-1v-1c-.0092882-1.6529917-1.3470083-2.9907118-3-3-1.6568542 0-3 1.3431458-3 3v3c.0006712.2696918-.1100548.5276905-.306.713-.1830903.1854514-.4334037.2889672-.694.287-.5522847 0-1-.4477153-1-1v-6c-.0092882-1.6529917-1.3470083-2.9907118-3-3-1.6568542 0-3 1.3431458-3 3v1c.0006712.2696918-.1100548.5276905-.306.713-.1830903.1854514-.4334037.2889672-.694.287-.5522847 0-1-.4477153-1-1v-6.577l18 .947z"/></g></g></g></svg>