<svg id="Capa_1" enable-background="new 0 0 512 512" height="512" viewBox="0 0 512 512" width="512" xmlns="http://www.w3.org/2000/svg"><g><path d="m512 256c0 141.385-114.615 256-256 256s-256-114.615-256-256 114.615-256 256-256 256 114.615 256 256z" fill="#ffc14f"/><path d="m472.769 256c0 119.718-97.051 216.769-216.769 216.769s-216.769-97.051-216.769-216.769 97.051-216.769 216.769-216.769 216.769 97.051 216.769 216.769z" fill="#ffcd71"/><path d="m441.119 338.032-137.512-34.425 34.425 137.512c1.396 5.578-6.182 8.717-9.139 3.785l-72.893-121.578-72.894 121.578c-2.957 4.932-10.535 1.792-9.139-3.785l34.425-137.512-137.511 34.425c-5.578 1.396-8.717-6.182-3.785-9.139l121.578-72.893-121.579-72.894c-4.931-2.957-1.792-10.535 3.785-9.139l137.512 34.425-34.424-137.511c-1.396-5.578 6.182-8.717 9.139-3.785l72.893 121.578 72.894-121.578c2.957-4.932 10.535-1.793 9.139 3.785l-34.425 137.512 137.512-34.425c5.578-1.396 8.717 6.182 3.785 9.139l-121.579 72.893 121.578 72.894c4.932 2.956 1.793 10.535-3.785 9.138z" fill="#df9d28"/><path d="m416.574 102.039-94.746 210.213c-1.437 3.189-5.621 3.955-8.094 1.481l-57.734-57.733-57.734 57.733c-2.473 2.474-6.657 1.708-8.094-1.481l-94.746-210.213c-1.892-4.198 2.415-8.505 6.613-6.613l153.961 69.392 153.961-69.392c4.198-1.892 8.505 2.415 6.613 6.613z" fill="#f44545"/><path d="m409.961 416.574-153.961-69.392-153.961 69.392c-4.198 1.892-8.505-2.415-6.613-6.613l94.746-210.213c1.437-3.189 5.621-3.955 8.094-1.481l57.734 57.733 57.734-57.733c2.473-2.474 6.657-1.708 8.094 1.481l94.746 210.213c1.892 4.198-2.415 8.505-6.613 6.613z" fill="#d63030"/><path d="m366.574 152.039-63.678 141.282c-1.437 3.188-5.621 3.954-8.094 1.481l-38.802-38.802-38.802 38.802c-2.473 2.473-6.657 1.708-8.094-1.481l-63.678-141.282c-1.892-4.198 2.415-8.505 6.613-6.613l103.961 46.857 103.961-46.856c4.198-1.893 8.505 2.414 6.613 6.612z" fill="#fc7979"/><path d="m359.961 366.574-103.961-46.857-103.961 46.856c-4.198 1.892-8.505-2.415-6.613-6.613l63.678-141.282c1.437-3.188 5.621-3.954 8.094-1.481l38.802 38.803 38.802-38.802c2.473-2.473 6.657-1.708 8.094 1.481l63.678 141.282c1.892 4.198-2.415 8.505-6.613 6.613z" fill="#af2727"/><path d="m491.975 260.855-229.782 56.475c-3.151.774-6.193-1.611-6.193-4.855v-56.475h-56.475c-3.245 0-5.63-3.042-4.855-6.193l56.475-229.782c1.247-5.076 8.464-5.076 9.711 0l45.597 185.522 185.522 45.597c5.076 1.248 5.076 8.464 0 9.711z" fill="#0956c6"/><path d="m317.331 262.193-56.475 229.782c-1.247 5.076-8.464 5.076-9.711 0l-45.597-185.522-185.523-45.598c-5.076-1.248-5.076-8.463 0-9.711l229.782-56.475c3.151-.774 6.193 1.611 6.193 4.855v56.476h56.475c3.245 0 5.63 3.042 4.856 6.193z" fill="#0a3575"/><path d="m409.65 260.676-146.88 55.613c-3.271 1.239-6.771-1.178-6.771-4.676v-55.613h-55.613c-3.498 0-5.915-3.5-4.676-6.771l55.613-146.88c1.63-4.306 7.722-4.306 9.352 0l40.915 108.06 108.059 40.915c4.307 1.63 4.307 7.722.001 9.352z" fill="#5596fb"/><path d="m316.289 262.771-55.613 146.88c-1.63 4.306-7.722 4.306-9.352 0l-40.915-108.06-108.059-40.915c-4.306-1.63-4.306-7.722 0-9.352l146.88-55.613c3.271-1.239 6.771 1.178 6.771 4.676v55.613h55.613c3.497 0 5.914 3.5 4.675 6.771z" fill="#0956c6"/><path d="m341 256c0 46.944-38.056 85-85 85s-85-38.056-85-85 38.056-85 85-85 85 38.056 85 85z" fill="#72d1fb"/><path d="m340.986 254.466c.226 12.796-2.377 24.959-7.224 35.908-1.593 3.599-5.191 5.894-9.126 5.894h-.003c-7.259 0-12.037-7.461-9.113-14.105 3.766-8.554 5.741-18.074 5.452-28.086-.999-34.602-29.467-62.607-64.08-63.071-10.171-.136-19.814 2.064-28.427 6.097-6.677 3.127-14.345-1.629-14.345-9.002 0-3.861 2.213-7.396 5.707-9.042 11.108-5.232 23.533-8.129 36.641-8.058 45.94.247 83.709 37.531 84.518 83.465z" fill="#93dcfc"/><path d="m321 256c0 35.898-29.102 65-65 65s-65-29.102-65-65 29.101-65 65-65 65 29.101 65 65z" fill="#d5f1fe"/><path d="m293.017 278.21-17.347 4.337-9.2 15.333-15.333-9.2-17.347 4.337-4.337-17.347-15.333-9.2 9.2-15.333-4.337-17.347 17.347-4.337 9.2-15.333 15.333 9.2 17.347-4.337 4.337 17.347 15.333 9.2-9.2 15.333z" fill="#07a9f0"/><path d="m271 256c0 8.284-6.716 15-15 15s-15-6.716-15-15 6.716-15 15-15 15 6.716 15 15z" fill="#0a3575"/></g></svg>