<svg id="Capa_1" enable-background="new 0 0 512.153 512.153" height="512" viewBox="0 0 512.153 512.153" width="512" xmlns="http://www.w3.org/2000/svg"><g><g><g><path d="m323.671 346.189c-56.877-97.063-138.988-150.137-197.854-177.567-5.286-2.463-8.665-7.765-8.665-13.596v-127.5c0-4.92 2.413-9.527 6.456-12.329 4.044-2.803 9.205-3.443 13.811-1.716 127.155 47.682 191.163 133.361 248.151 247.336 2.111 4.223 2.111 9.194 0 13.417l-35.54 71.08c-5.32 10.639-20.337 11.151-26.359.875z" fill="#f93"/></g></g><g><g><path d="m250.694 363.533c-115.905-64.914-214.761-54.021-233.399-51.178-13.511 2.06-22.518-13.631-13.926-24.259 22.406-27.715 42.974-42.829 64.007-65.749-21.343-30.347-43.574-69.237-64.163-95.586-8.33-10.662.676-26.111 14.084-24.064 120.76 18.443 256.754 99.478 332.257 228.324 5.357 9.142-.217 20.836-10.708 22.417l-78.59 11.84c-3.235.487-6.606-.089-9.562-1.745z" fill="#ffc34d"/></g></g><path d="m222.153 402.526h-15v-15c0-8.284-6.716-15-15-15s-15 6.716-15 15v15h-15c-8.284 0-15 6.716-15 15s6.716 15 15 15h15v15c0 8.284 6.716 15 15 15s15-6.716 15-15v-15h15c8.284 0 15-6.716 15-15s-6.716-15-15-15z" fill="#ffea80"/><g><g><path d="m488.513 335.615-70.89-10.68-32.05-64.12c-2.76-5.52-8.09-8.28-13.42-8.28s-10.66 2.76-13.42 8.28l-32.05 64.12-70.89 10.68c-12.21 1.84-17.08 16.86-8.29 25.52l51.07 50.29-11.75 70.72c-2.02 12.18 10.77 21.45 21.71 15.77l63.62-33.02 63.62 33.02c10.89 5.66 23.74-3.53 21.71-15.77l-11.75-70.72 51.07-50.29c8.8-8.669 3.91-23.69-8.29-25.52z" fill="#ffea80"/></g></g><g fill="#ffc34d"><path d="m496.803 361.135-51.07 50.29 11.75 70.72c2.03 12.24-10.82 21.43-21.71 15.77l-63.62-33.02v-212.36c5.33 0 10.66 2.76 13.42 8.28l32.05 64.12 70.89 10.68c12.2 1.83 17.09 16.851 8.29 25.52z"/><path d="m497.153 222.526h-15v-15c0-8.284-6.716-15-15-15s-15 6.716-15 15v15h-15c-8.284 0-15 6.716-15 15s6.716 15 15 15h15v15c0 8.284 6.716 15 15 15s15-6.716 15-15v-15h15c8.284 0 15-6.716 15-15s-6.716-15-15-15z"/></g></g></svg>