<?xml version="1.0" encoding="utf-8"?>
<!-- Generator: Adobe Illustrator 24.3.0, SVG Export Plug-In . SVG Version: 6.00 Build 0)  -->
<svg version="1.1" id="Capa_1" xmlns="http://www.w3.org/2000/svg" xmlns:xlink="http://www.w3.org/1999/xlink" x="0px" y="0px"
	 viewBox="0 0 512 512" style="enable-background:new 0 0 512 512;" xml:space="preserve">
<style type="text/css">
	.st0{fill:#CCCC00;}
</style>
<path class="st0" d="M444.8,185.9l-147-96.1c7.2-3,14.3-7.3,20.4-13.4c0,0,0,0,0,0c22.4-22.5,20.6-57.8,20.3-61.8
	c-0.6-7.7-6.7-13.9-14.4-14.4c-4-0.3-39.3-2.2-61.8,20.3c-2.3,2.3-4.4,4.8-6.2,7.3c-1.9-2.5-3.9-5-6.2-7.3
	C227.3-2,191.9-0.1,188,0.2c-7.7,0.6-13.9,6.7-14.4,14.4c-0.3,4-2.2,39.3,20.3,61.8c6.1,6.1,13.2,10.4,20.4,13.4L67.2,186.1
	c-4.5,3-7.2,8-7.1,13.4c0.5,19.7,23,28.8,30.4,31.8c14.3,5.8,33.7,10.6,57.8,14.3c0.8,0.1,1.6,0.2,2.4,0.2c5,0,9.8-2.4,12.8-6.6
	l92.5-131l92.5,131c3,4.2,7.7,6.6,12.8,6.6c0.8,0,1.6-0.1,2.4-0.2c24.2-3.7,43.8-8.6,58.1-14.4c20-8.2,30.2-19,30.2-32.3
	C451.9,193.7,449.2,188.7,444.8,185.9z"/>
<path class="st0" d="M256,512c-2.5,0-5-0.6-7.2-1.8C191.9,480.5,144.3,435.9,111,381c-33.3-54.8-50.9-117.7-50.9-181.9
	c0-8.6,6.9-15.5,15.4-15.6c7.8-0.1,14.2,5.4,15.6,12.8c3.8,3.5,20.1,12,62,18.4c30,4.6,65.6,7.1,102.9,7.1
	c37.3,0,72.9-2.4,102.9-7.1c41.7-6.4,58.1-14.9,62-18.4c1.2-7.4,7.7-13.1,15.4-13.1c8.6,0,15.6,7,15.6,15.6
	c0,64.2-17.6,127.1-50.8,182c-33.3,54.9-80.9,99.6-137.8,129.3C261,511.4,258.5,512,256,512z"/>
<path class="st0" d="M444.8,185.9l-147-96.1c7.2-3,14.3-7.3,20.4-13.4c0,0,0,0,0,0c22.4-22.5,20.6-57.8,20.3-61.8
	c-0.6-7.7-6.7-13.9-14.4-14.4c-4-0.3-39.3-2.2-61.8,20.3c-2.3,2.3-4.4,4.8-6.2,7.3v80.4l92.5,131c3,4.2,7.7,6.6,12.8,6.6
	c0.8,0,1.6-0.1,2.4-0.2c24.2-3.7,43.8-8.6,58.1-14.4c20-8.2,30.2-19,30.2-32.3C451.9,193.7,449.2,188.7,444.8,185.9z"/>
<path class="st0" d="M436.3,183.3c-7.8,0-14.2,5.7-15.4,13.1c-3.8,3.5-20.2,12-62,18.4c-30,4.6-65.6,7.1-102.9,7.1V512
	c2.5,0,5-0.6,7.2-1.8c56.9-29.7,104.5-74.4,137.8-129.3c33.3-54.9,50.8-117.8,50.8-182C451.9,190.3,444.9,183.3,436.3,183.3z"/>
</svg>
