<?xml version="1.0" encoding="iso-8859-1"?>
<!-- Generator: Adobe Illustrator 19.0.0, SVG Export Plug-In . SVG Version: 6.00 Build 0)  -->
<svg fill="#fff" version="1.1" id="Capa_1" xmlns="http://www.w3.org/2000/svg" xmlns:xlink="http://www.w3.org/1999/xlink" x="0px" y="0px"
	 viewBox="0 0 512 512" style="enable-background:new 0 0 512 512;" xml:space="preserve">
<g>
	<g>
		<path d="M256,0C114.848,0,0,114.848,0,256s114.848,256,256,256s256-114.848,256-256S397.152,0,256,0z M474.88,208.768
			c-5.184-6.048-10.528-12.48-15.776-18.88c-17.728-21.632-41.984-51.232-74.368-83.648c-32.512-32.544-64.448-55.36-93.504-71.2
			C382.496,49.568,455.552,119.168,474.88,208.768z M361.504,453.504c-61.92-0.288-108.48-12.896-142.496-22.176
			c-19.872-5.44-35.52-9.728-48.288-9.728c-14.432,0-32.992,4.608-47.776,14.272c-38.72-28.8-67.936-69.632-81.824-117.056
			c27.872-0.896,88.416,15.52,154.624,47.808c79.072,38.528,132.192,54.976,177.664,54.976c12.864,0,24.416-0.64,34.592-1.536
			C393.984,433.056,378.464,444.416,361.504,453.504z M437.44,336.224c-17.632,0-56.992-8.672-195.04-83.36
			c-92.992-50.368-157.216-68.416-202.016-56.768c11.008-39.616,32.608-74.816,61.632-102.368c54.4,3.2,150.208,50.048,197.12,89.44
			c26.688,22.4,126.464,98.016,176.448,116.8c-2.496,12.512-6.208,24.576-10.72,36.256H437.44z"/>
	</g>
</g>
<g>
</g>
<g>
</g>
<g>
</g>
<g>
</g>
<g>
</g>
<g>
</g>
<g>
</g>
<g>
</g>
<g>
</g>
<g>
</g>
<g>
</g>
<g>
</g>
<g>
</g>
<g>
</g>
<g>
</g>
</svg>
