<?xml version="1.0"?>
<svg xmlns="http://www.w3.org/2000/svg" xmlns:xlink="http://www.w3.org/1999/xlink" version="1.1" id="Capa_1" x="0px" y="0px" viewBox="0 0 512.001 512.001" style="enable-background:new 0 0 512.001 512.001;" xml:space="preserve" width="512px" height="512px" class=""><g><path style="fill:#FFE529" d="M444.795,185.86L297.769,89.767c7.22-3.025,14.325-7.303,20.388-13.363  c0.002-0.003,0.004-0.005,0.006-0.007c22.446-22.459,20.576-57.837,20.288-61.796c-0.561-7.733-6.711-13.883-14.444-14.444  c-3.959-0.284-39.342-2.158-61.786,20.298c-2.313,2.312-4.373,4.771-6.224,7.321c-1.851-2.545-3.91-5.003-6.223-7.313  C227.325-2.001,191.942-0.126,187.983,0.158c-7.733,0.561-13.883,6.711-14.444,14.444c-0.286,3.96-2.158,39.338,20.294,61.804  c6.075,6.071,13.194,10.354,20.429,13.38l-147.068,96.29c-4.52,2.959-7.187,8.044-7.055,13.444  c0.48,19.671,23.009,28.806,30.413,31.807c14.257,5.781,33.712,10.59,57.821,14.295c0.794,0.122,1.586,0.181,2.374,0.181  c5.021,0,9.799-2.426,12.751-6.608l92.503-131.006l92.511,131.006c2.953,4.182,7.73,6.608,12.751,6.608  c0.788,0,1.583-0.059,2.375-0.181c24.247-3.729,43.779-8.572,58.053-14.396c20.022-8.17,30.174-19.035,30.174-32.295  C451.867,193.658,449.207,188.743,444.795,185.86z" data-original="#C81019" class="" data-old_color="#C81019"/><path style="fill:#E8CD07" d="M256,512.001c-2.483,0-4.963-0.59-7.227-1.774c-56.856-29.689-104.487-74.37-137.743-129.217  c-33.255-54.84-50.854-117.727-50.897-181.862c-0.006-8.551,6.868-15.515,15.419-15.623c7.751-0.12,14.228,5.443,15.559,12.821  c3.765,3.491,20.141,11.977,62.003,18.409c29.986,4.628,65.555,7.074,102.874,7.074c37.328,0,72.909-2.446,102.896-7.072  c41.718-6.415,58.123-14.863,61.961-18.376c1.217-7.411,7.652-13.065,15.406-13.065c8.623,0,15.614,6.991,15.614,15.614  c0,64.16-17.58,127.092-50.839,181.993c-33.26,54.886-80.91,99.599-137.801,129.306C260.963,511.409,258.481,512.001,256,512.001z" data-original="#FD3426" class="active-path" data-old_color="#FD3426"/><path style="fill:#FFE529" d="M444.795,185.86L297.769,89.767c7.22-3.025,14.325-7.303,20.388-13.363  c0.002-0.003,0.004-0.005,0.006-0.007c22.446-22.459,20.576-57.837,20.288-61.796c-0.561-7.733-6.711-13.883-14.444-14.444  c-3.959-0.284-39.342-2.158-61.786,20.298c-2.311,2.31-4.369,4.766-6.218,7.313v80.423l92.509,131.002  c2.953,4.182,7.73,6.608,12.751,6.608c0.788,0,1.583-0.059,2.375-0.181c24.247-3.729,43.779-8.572,58.053-14.396  c20.022-8.17,30.174-19.035,30.174-32.295C451.867,193.658,449.207,188.743,444.795,185.86z" data-original="#990419" class="" data-old_color="#990419"/><path style="fill:#FFE529" d="M436.253,183.316c-7.755,0-14.19,5.654-15.406,13.065c-3.839,3.513-20.242,11.961-61.961,18.376  c-29.983,4.626-65.559,7.071-102.883,7.072v290.171c2.48,0,4.962-0.592,7.224-1.773c56.889-29.707,104.541-74.419,137.801-129.306  c33.259-54.901,50.839-117.833,50.839-181.993C451.867,190.307,444.876,183.316,436.253,183.316z" data-original="#C81019" class="" data-old_color="#C81019"/></g> </svg>
