<svg height="480pt" viewBox="0 -16 480 479" width="480pt" xmlns="http://www.w3.org/2000/svg"><path d="m78.359375 80.683594 303.996094-64.019532 3.296875 15.65625-303.996094 64.019532zm0 0" fill="#87cee9"/><path d="m408 24.503906c0 8.835938-7.164062 16-16 16s-16-7.164062-16-16c0-8.835937 7.164062-16 16-16s16 7.164063 16 16zm0 0" fill="#dd3e46"/><path d="m56 88.503906h368c26.507812 0 48 21.492188 48 48v224c0 26.511719-21.492188 48-48 48h-368c-26.507812 0-48-21.488281-48-48v-224c0-26.507812 21.492188-48 48-48zm0 0" fill="#7d8d9c"/><path d="m424 208.503906c0 48.601563-39.398438 88-88 88s-88-39.398437-88-88c0-48.601562 39.398438-88 88-88s88 39.398438 88 88zm0 0" fill="#fcf05a"/><path d="m296 240.503906h-16v-64h40v16h-24zm0 0" fill="#301a12"/><path d="m288 208.503906h24v16h-24zm0 0" fill="#301a12"/><path d="m392 240.503906h-16v-32l-9.601562 12.800782c-1.574219 1.914062-3.921876 3.023437-6.398438 3.023437s-4.824219-1.109375-6.398438-3.023437l-9.601562-12.800782v32h-16v-56c0-3.441406 2.203125-6.5 5.46875-7.589844 3.269531-1.085937 6.863281.035157 8.929688 2.789063l17.601562 23.464844 17.601562-23.464844c2.066407-2.753906 5.660157-3.875 8.929688-2.789063 3.265625 1.089844 5.46875 4.148438 5.46875 7.589844zm0 0" fill="#301a12"/><path d="m370.289062 174.105469c-9.121093-8.980469-21.492187-13.886719-34.289062-13.601563v-16c17.097656-.304687 33.59375 6.335938 45.710938 18.402344zm0 0" fill="#f9c55d"/><path d="m337.039062 275.097656c-13.5625-.085937-26.773437-4.34375-37.839843-12.191406l9.601562-12.800781c16.230469 11.742187 38.167969 11.742187 54.398438 0l9.601562 12.800781c-10.25 7.898438-22.820312 12.183594-35.761719 12.191406zm0 0" fill="#f9c55d"/><path d="m304 144.503906h16v16h-16zm0 0" fill="#f9c55d"/><path d="m440 352.503906c0 13.253906-10.746094 24-24 24s-24-10.746094-24-24 10.746094-24 24-24 24 10.746094 24 24zm0 0" fill="#cdeef6"/><path d="m410.34375 346.847656 15.996094-15.996094 11.316406 11.3125-16 15.996094zm0 0" fill="#394d5c"/><path d="m360 352.503906c0 13.253906-10.746094 24-24 24s-24-10.746094-24-24 10.746094-24 24-24 24 10.746094 24 24zm0 0" fill="#cdeef6"/><path d="m330.34375 346.847656 15.996094-15.996094 11.3125 11.3125-15.996094 16zm0 0" fill="#394d5c"/><path d="m280 352.503906c0 13.253906-10.746094 24-24 24s-24-10.746094-24-24 10.746094-24 24-24 24 10.746094 24 24zm0 0" fill="#cdeef6"/><g fill="#394d5c"><path d="m234.339844 342.167969 11.316406-11.316407 15.996094 16-11.3125 11.3125zm0 0"/><path d="m56 136.503906c8.835938 0 16 7.164063 16 16v192c0 8.835938-7.164062 16-16 16s-16-7.164062-16-16v-192c0-8.835937 7.164062-16 16-16zm0 0"/><path d="m120 136.503906c8.835938 0 16 7.164063 16 16v192c0 8.835938-7.164062 16-16 16s-16-7.164062-16-16v-192c0-8.835937 7.164062-16 16-16zm0 0"/><path d="m184 136.503906c8.835938 0 16 7.164063 16 16v192c0 8.835938-7.164062 16-16 16s-16-7.164062-16-16v-192c0-8.835937 7.164062-16 16-16zm0 0"/><path d="m56 408.503906h368v32h-368zm0 0"/></g><path d="m224 288.503906h16v16h-16zm0 0" fill="#f4f4e6"/><path d="m424 280.503906h16v16h-16zm0 0" fill="#f4f4e6"/><path d="m448 152.503906h-16v-16c0-4.417968-3.582031-8-8-8h-16v-16h16c13.253906 0 24 10.746094 24 24zm0 0" fill="#f4f4e6"/><path d="m424 80.503906h-267.199219l213.976563-45.039062c5.402344 10.269531 17.414062 15.160156 28.457031 11.585937 11.042969-3.570312 17.910156-14.574219 16.269531-26.0625-1.636718-11.492187-11.308594-20.132812-22.910156-20.476562-11.597656-.34375-21.765625 7.707031-24.082031 19.082031l-289.3125 60.910156h-23.199219c-30.914062.035156-55.9648438 25.085938-56 56v224c.0546875 27.804688 20.484375 51.367188 48 55.359375v24.640625c0 4.417969 3.582031 8 8 8h368c4.417969 0 8-3.582031 8-8v-24.640625c27.515625-3.992187 47.945312-27.554687 48-55.359375v-224c-.035156-30.914062-25.085938-55.964844-56-56zm-32-64c3.996094.003906 7.375 2.953125 7.921875 6.910156.542969 3.957032-1.914063 7.710938-5.757813 8.792969-3.847656 1.082031-7.902343-.839843-9.5-4.503906l-.664062-3.199219c0-4.417968 3.582031-8 8-8zm24 416h-352v-16h352zm48-72c-.027344 22.082032-17.917969 39.972656-40 40h-368c-22.082031-.027344-39.972656-17.917968-40-40v-224c.027344-22.078125 17.917969-39.972656 40-40h368c22.082031.027344 39.972656 17.921875 40 40zm0 0"/><path d="m296 224.503906h16v-16h-16v-16h24v-16h-40v64h16zm0 0"/><path d="m344 208.503906 9.601562 12.800782c1.574219 1.914062 3.921876 3.023437 6.398438 3.023437s4.824219-1.109375 6.398438-3.023437l9.601562-12.800782v32h16v-56c0-3.441406-2.203125-6.5-5.46875-7.589844-3.269531-1.085937-6.863281.035157-8.929688 2.789063l-17.601562 23.464844-17.601562-23.464844c-2.066407-2.753906-5.660157-3.875-8.929688-2.789063-3.265625 1.089844-5.46875 4.148438-5.46875 7.589844v56h16zm0 0"/><path d="m336 304.503906c53.019531 0 96-42.980468 96-96 0-53.019531-42.980469-96-96-96s-96 42.980469-96 96c.058594 52.996094 43.003906 95.945313 96 96zm0-176c44.183594 0 80 35.816406 80 80s-35.816406 80-80 80-80-35.816406-80-80c.046875-44.160156 35.835938-79.949218 80-80zm0 0"/><path d="m381.710938 162.90625c-12.117188-12.066406-28.613282-18.707031-45.710938-18.402344v16c12.796875-.285156 25.167969 4.621094 34.289062 13.601563zm0 0"/><path d="m308.800781 250.105469-9.601562 12.800781c11.066406 7.847656 24.277343 12.105469 37.839843 12.191406 12.941407-.007812 25.511719-4.292968 35.761719-12.191406l-9.601562-12.800781c-16.230469 11.742187-38.167969 11.742187-54.398438 0zm0 0"/><path d="m304 144.503906h16v16h-16zm0 0"/><path d="m416 320.503906c-17.671875 0-32 14.328125-32 32 0 17.675782 14.328125 32 32 32s32-14.324218 32-32c0-17.671875-14.328125-32-32-32zm0 48c-8.835938 0-16-7.164062-16-16 0-8.835937 7.164062-16 16-16 1.382812.019532 2.757812.222656 4.089844.601563l-9.746094 9.742187 11.3125 11.3125 9.742188-9.742187c.382812 1.328125.582031 2.703125.601562 4.085937 0 8.835938-7.164062 16-16 16zm0 0"/><path d="m336 320.503906c-17.671875 0-32 14.328125-32 32 0 17.675782 14.328125 32 32 32s32-14.324218 32-32c0-17.671875-14.328125-32-32-32zm0 48c-8.835938 0-16-7.164062-16-16 0-8.835937 7.164062-16 16-16 1.382812.019532 2.757812.222656 4.089844.601563l-9.746094 9.742187 11.3125 11.3125 9.742188-9.742187c.382812 1.328125.582031 2.703125.601562 4.085937 0 8.835938-7.164062 16-16 16zm0 0"/><path d="m256 320.503906c-17.671875 0-32 14.328125-32 32 0 17.675782 14.328125 32 32 32s32-14.324218 32-32c0-17.671875-14.328125-32-32-32zm0 48c-8.835938 0-16-7.164062-16-16 .019531-1.382812.21875-2.757812.601562-4.085937l9.742188 9.742187 11.3125-11.3125-9.746094-9.742187c1.332032-.378907 2.707032-.582031 4.089844-.601563 8.835938 0 16 7.164063 16 16 0 8.835938-7.164062 16-16 16zm0 0"/><path d="m56 128.503906c-13.253906 0-24 10.746094-24 24v192c0 13.253906 10.746094 24 24 24s24-10.746094 24-24v-192c0-13.253906-10.746094-24-24-24zm8 216c0 4.417969-3.582031 8-8 8s-8-3.582031-8-8v-192c0-4.417968 3.582031-8 8-8s8 3.582032 8 8zm0 0"/><path d="m120 128.503906c-13.253906 0-24 10.746094-24 24v192c0 13.253906 10.746094 24 24 24s24-10.746094 24-24v-192c0-13.253906-10.746094-24-24-24zm8 216c0 4.417969-3.582031 8-8 8s-8-3.582031-8-8v-192c0-4.417968 3.582031-8 8-8s8 3.582032 8 8zm0 0"/><path d="m184 128.503906c-13.253906 0-24 10.746094-24 24v192c0 13.253906 10.746094 24 24 24s24-10.746094 24-24v-192c0-13.253906-10.746094-24-24-24zm8 216c0 4.417969-3.582031 8-8 8s-8-3.582031-8-8v-192c0-4.417968 3.582031-8 8-8s8 3.582032 8 8zm0 0"/><path d="m224 288.503906h16v16h-16zm0 0"/><path d="m424 280.503906h16v16h-16zm0 0"/><path d="m424 112.503906h-16v16h16c4.417969 0 8 3.582032 8 8v16h16v-16c0-13.253906-10.746094-24-24-24zm0 0"/></svg>