<svg enable-background="new 0 0 100 100" height="512" viewBox="0 0 100 100" width="512" xmlns="http://www.w3.org/2000/svg"><circle cx="40.557" cy="48.639" fill="#ededed" r="35.042"/><path d="m74.8926544 41.6163139c-.0310211-.0186157-.0682526-.0372314-.0992813-.0496407-.1115417-.0370827-.2044678-.0494919-.3160095-.1053391-.1365128-.0744629-.2604675-.2046204-.4340668-.1115417-.0991287.3223686-.1053314.6569939-.2046204.9793625-.0556946.1737442-.1177444.6262703-.3594437.6014481-.0682602-.1054878-.0620499-.2170296-.1054916-.3347778-.0432816-.1425667-.1053314-.2108231-.1239471-.3533936-.0494919-.2727242-.0246735-.5640678-.1239548-.8307381-.1177444-.3223686-.0867233-.6323242-.1860046-.9546928-.1115417-.353241-.2044678-.5887375-.1982651-.9607468.0062103-.514576.0186157-1.0352058 0-1.5497856-.0062027-.2913399-.0372314-.6819649-.117897-.9608955-.0618973-.2168808-.1920547-.4401169-.3284225-.6137085-.1116943-.1425705-.3595963-.272728-.3533936-.4649353.2603149-.1053391.8183289-.2230873 1.2150116-.1425705-.3966827-1.0043335-.8369446-1.983696-1.3265533-2.938385-.2975464-.1301613-.5580139-.241703-.756424-.526989-.2044754-.2975464-.297554-.6509399-.4897614-.9545403-.1115417-.1737461-.2789307-.2852879-.4152908-.4340611-.2168808-.2417011-.3596039-.4835529-.6323242-.6756096-.3037567-.2170315-.6694031-.2604675-.9793625-.4588833-.483551-.3099556-1.0725937-.8057671-1.2460327-1.363781-.0806732-.2541103-.1487732-.4711399-.2975464-.6880188-.0806732-.1239529-.2108307-.5145779-.3596039-.5518093-.1115417.1798-.0496368.5393982-.0496368.7438679.0124054.4773445.3409805.8555603.5642166 1.2522373.1858521.3347778.2168808.5207825.2044678.8989983 0 .2168789-.0310287.4152927.1303101.5826817.0991287.1115417.2044678.1239529.2292862.2913418.0186157.1177483-.0124054.210825.024826.3347778.0494919.1611843.1301575.2789307.1425629.4587307.012413.2479057-.0124054.5021667-.0124054.7500725 0 .254261.0062027.5021667.0062027.7500725-.0062027.2418518-.080513.5456009.1053391.7316055.1116943.1115417.3099594.1362114.4340591.2354965.1672363.123951.2230835.3037529.2416992.5021667.0186157.3161621.0558472.8057671-.0248184 1.1033134-.0558472.2108269-.2541122.2914925-.3718567.4588814-.1365128.1922112-.2046204.3842697-.2232361.6259689-.0186157.254261.0062027.5207825.0062027.7748909 0 .297699.0310287.6138611.0062027.9114075-.0124054.1858559-.0991287.6137123-.2665176.7376633-.0992813.0744629-.2728806.0310249-.378212.0310249-.2789307-.0062027-.5950928.0494919-.861618 0-.4154434-.0744629-.6633453-.4587288-1.0912018-.5456009-.1549835.3037491-.2479095.7005806-.3346329 1.0291519-.0434341.1734428-.0620499.3223686-.0558395.5021667.0062027.3470383.092926.8554115.0062027 1.1839828-.0496445.1735954-.1549835.2354965-.2356491.3966789-.1486206.2727242-.0991287.619915-.2479019.8989944-.2913437.5454521-.7624855.942131-1.146904 1.4070663-.1858521.2232361-.3160095.4278564-.4277039.6881714-.0867195.2106743-.123951.6819687-.353241.8121262-.2851372.1673889-.6447372-.1797981-.8059196-.3720093-.1673889-.1984138-.3533936-.3904724-.3720093-.663353-.0124092-.1860008-.043438-.4277039-.0248222-.6012955.0310287-.2789307.3720093-.7376633 0-.985569-.4587288.4152946-.0494881 1.1529579-.4339066 1.593071-.1549797.0992851-.3099594.2108269-.4463234.3347778-.0496407.1301575-.1363602.2232361-.2665176.266674-.1735954.0681038-.4463234.0060539-.6261215.0060539-.483551 0-.9857178.0434341-1.4692688.0062027-.2851372-.0246696-.4401131-.2230835-.6445847-.4028816-.1549759-.1487732-.3223648-.2851372-.5021667-.4090881-.1241035-.0186157-.2170296-.0806694-.2727242-.1984177-.1860046-.2665215-.2604675-.5516548-.4959641-.7935066-.1487732-.0744629-.2356453-.1860046-.2728767-.3409843.0248222-.1735954.0620537-.3533936.0992851-.5268364.0308723-.2790833.0308723-.4525261-.254261-.514576-.2665215-.0620537-.5454521-.0558472-.8181801-.0496407-.2232361 0-.4464722.0310249-.6633492-.0372314-.1487732-.0494919-.2913437-.1239548-.4215012-.2106743-.1054878-.0186157-.2170296-.0248222-.3223648-.012413-.5083733-.0124092-1.0229492.0062065-1.5373764 0-.4030342 0-.7810974.0929298-1.1903381.0867233-.6385307-.0062065-1.4380913-.1672363-1.9712868.2604675-.3037491.2416992-.5330391.6012993-.8245316.8678169-.1610336.1425705-.5144272.2789345-.4958115.5330429.0184631.3347778.5268364.434063.7562752.4649353.3161659.043438.3780632.2232361.3533936.5704231-.0496407.5640678-.905201 1.6180458.1920586 1.6613274.1860046.0062065.4339104.012413.6261215-.0062027.3347778-.0310249.5456009-.3161621.7935066-.4959641.1735954-.0867195.3409843-.1610298.5145798-.2292862.2416992-.0806694.4525223-.2170334.6323242-.4090919.3285713-.2851334.6445847-.7129898 1.0414124-.9238167.526989-.2727242 1.3203468-.353241 1.89077-.1796494-.1303101.7438698-.8803825.985569-1.5127068 1.1901894-.4277039.136364-.8616142.2851372-.8678207.7935066 0 .2479057-.0248184.4339104-.0556946.6819687-.0372314.2727242.0494919.6199112-.1984138.8181763-.2975464.2418518-.9112549.1116943-1.2708549.0992851-.5207825-.0248222-.6943779.4525223-1.0972595.7128372-.2665215.1673889-.4959641.3223686-.8183289.1860046-.2851372-.123951-.4896049-.3161621-.712841-.5331917-.2046204-.1922073-.2789307-.3161621-.2665215-.619915 0-.1922073-.0186157-.3223648-.0868721-.5082207-.092926-.2790794-.3099594-.5207825-.4028854-.7873001-.1116943-.1116943-.1301575-.2542648-.0496407-.4154472.1673889-.2416992.3161621-.5020142.4401131-.7686882-.2230835-.1549797-.471138-.2354927-.7562752-.1735954-.3161621.0682602-.3904724.2046204-.5578613.4587326-.1239548.1860046-.0992851.1922112-.3844223.1549797-.1735916-.0248222-.3658028-.0619011-.5330391-.1115417-.297699-.0867233-.4463196-.2232361-.6819687-.4090919-.2975464-.2294388-.5950928-.0372314-.9360733.0062065-.2294426.0246696-.6447372.0619011-.8554115-.0372314-.1984138-.0930786-.378212-.2913399-.5518074-.4214973-.2354927-.1798019-.4090881-.3596001-.6571465-.5083733-.1920586-.1177483-.4214973-.4154472-.6383781-.4773483-.4216499-.1177444-.5890388.4959641-.737812.756279-.0991325.1673889-.1673889.2232361-.1860046.4339104-.0184631.1860046.0310249.3285713-.0867195.5083694-.1115456.1735954-.4339104.3658066-.6075058.4587326-.2789307.1487732-.619915.3161621-.9236641.1860046-.2294426-.1053391-.3904762-.2851372-.4649391-.514576-.080513-.2541122-.1860046-.4958115-.2727242-.7500725-.0930786-.2665215-.2790833-.4463196-.4092407-.7004318-.0432854-.0868721-.0372314-.1984138-.136364-.2604675-.216877-.1549759-.6818123-.0434341-.9298706-.0370789-.2727242 0-.5826836.0124092-.8429985.1053352-.2852859.1115456-.5456009.4525261-.8369446.5888901-.2603149.1177483-.9050484-.0558472-.8245354.3842697.0558472.3223648.2604675.6571426.403038.9486351.1982613.4090919.4339066.8243828.6695557 1.2086525.1858521.297699.4958076.4773445.6818123.78125.2416992.4028816.2480583.6818123.7935104.6694031.347187-.0124092.6571426-.1673889 1.0103874-.1735916.3409805-.012413.6943741.0062027 1.0353584 0 .1796494 0 .3409843-.0060539.5083733.0558434.0867195.0310287.1672363.0806694.2541084.1053391.1115417.0310249.3347778.0434341.4649353 0 .0743141-.0246696.1487732-.1239548.2354965-.1301575.2852859-.0370789.5207825.3347778.6571465.5269852.1673889.2354965.0434341.5826836.2170296.7873039.2603149.3161621.9112549-.0992813 1.1715698.322216.1115417.1861572.0248222.5580139.0248222.7564278 0 .2168808-.0062065.4339104-.0062065.6507912 0 .1054878-.0186157.2356453.0743103.3099556.1735954.1365166.6943779.0310287.8803825-.0308723.2416992-.0806694.1920586-.1922112.3223686-.3658066-.012413-.1053352.0494881-.1611824.1673889-.1611824.0867195.0124092.1672363.0310249.2541084.043438.272728.1549759.1798019.7066345.1798019.9608955 0 .365654-.0186157.7314568-.0744629 1.0909042-.0248222.1489258-.092926.3039017-.136364.4402657-.136364.3904724-.1177483.7810974-.1487732 1.1777763-.0372314.4649353-.2603149.6012993-.6075058.8679695-.3161621.241703-.3966751.5268364-.4028816.9174614 0 .0991325-.0248222.2230873-.0062065.3223686.0619011.3223686.3470383.2106743.6075058.1301575.0248184-.0124092.619915-.3285713.6818123-.5083733.0062065-.0434341.0062065-.0806656.0062065-.123951-.0805168-.1487732-.0432854-.2727242.1054878-.3596001.3223686 0 .5764771.1425705.7624817.4152946.136364.1735954.2603188.3471909.3718605.5331955.1303062.2480545.117897.5207825.4463196.5764771.3658028.0682564 1.0912056-.2665215 1.2894707-.5888901.1363602-.2232361.0868721-.4649353.0806656-.7252502 0-.2356453-.0806656-.526989.092926-.7129936.2480583-.123951.4711418-.2789307.6757622-.4649353.1549797-.1734428.347187-.2416992.5764771-.1982613.1860046 0 .5516586-.0496445.6942253.0867195.1922112.1860046.1179008.6942253.2294426.9422836.1363602.3037491.3223648.5268364.5826836.7314568.2170296.1735916.3099556.4216499.5269852.5826797.2913437.2232361.4463196.2294426.5082207.6138611.0682564.4463196.2852898.8988457.5828362 1.2458839.1053352.1241035.4773445.2914925.5020142.4712906.0744629.5268364-1.0909042.4090881-1.320343.3470383-.5145798-.1425705-.6880226-.5516586-.9236679-.9917717-.2665215-.5145798-.5702705-.9484863-.9298706-1.4010124-.4277039.2603149-.1735954.8429985-.4339104 1.2025986-.2418518.3223648-.6881714.3718567-1.0476189.3594437-.3968277-.0122566-.7748909-.080513-1.1655159-.1734428-.4028854-.1053352-.7873039-.0992813-1.2025986-.0930748-.1425667.1984138-.0991325.5704231-.0867195.7997131.0184631.3409805.1301575.5393982.3842659.7624817.2479057.2170296.5764771.6137085.8926392.737812.136364.0494919.2665215.0246696.403038.0556946.3037491.0620537.5206299.2046204.7809448.3596001.1737442.1053391.4526787.1425667.526989.353241.0682564.1922112.0558472.6447372.0062027.8431511-.0867195.347187-.4339066.4525261-.7376595.514576-.2851372.0558472-.5331917.2354965-.8183289.272728-.4028854.0558472-.9298706.0310249-1.3265495-.0186157-.2975464-.0432854-.4587326-.2294426-.6819687-.3966789-.3037491-.2170296-.7190437-.2913399-.8864326-.6447334-.1425705-.2913437-.1860046-.5888901-.4525261-.8121262-.2356453-.2044678-.5826836-.2665215-.8617668-.3842659-.3718567-.1549797-.7376595-.3533936-.9422798-.7129936-.136364-.2416992-.1920586-.5950928-.2354965-.8678207-.0124092-.0806656.0248222-.5952454-.0248184-.7502213-.0744629-.1920586-.3720093-.3470383-.5454521-.4090881-.2790833-.0929298-.4401169.117897-.7129936.0558434-.3780632-.0868721-.6509399-.3223648-.8243828-.6571426-.1549797-.2913437-.2975464-.5888901-.4588814-.8802299-.0991325-.1735954-.2354965-.3596001-.2913399-.5456047-.0556984-.2044678-.0062065-.4277039-.0432854-.6321716-.0248222-.1303101-.1054916-.2418518-.136364-.3658066-.0558472-.2046165-.0310249-.3844185.0308723-.6012955.148777-.526989.5950966-.9608994.7192001-1.494091.1487732-.6507912-.4587326-1.1653671-.8803825-1.5559921-.3099556-.2913399-.3161621-.7066345-.5516548-1.0290031-.1239548-.1735916-.3844223-.1860046-.5702744-.2603149-.2170296-.0930786-.4030342-.1054878-.619915-.1611824-.3285713-.0806694-.3595963-.4215012-.6014481-.6137085-.1982651-.1611862-.5082207-.1860046-.6880226-.3720093-.1611824-.1673889-.254261-.4401169-.3968277-.6323242-.22929-.2975502-.4773483-.5888901-.7004318-.892643-.1487732-.2046204-.3347778-.4216499-.5393982-.5578613-.1301575-.0868721-.2727242-.1241035-.4090881-.2108269-.1177483-.0806656-.2108269-.2108231-.3347778-.2789307-.2913418-.1797981-.5826836-.0434341-.8740253.0432854-.1922092.0496407-.3409824.0496407-.5393982.0186157-.4277039-.0743103-.8740234-.0246696-1.2955227-.123951-.8059196-.1798019-1.4196281-.7004318-2.1821098-.985569-.2975483-.1054878-.5642204-.0620499-.874176-.0620499-.3284225.0062027-.6569939-.0248222-.9793625.0124092-.2232361.0308762-.440115.0867233-.6633511.1177483-.2727261.0372314-.533041.0124092-.8059177.0248222-.2975464.0186119-.5950928.2541084-.7810974.4773445-.0867214.0991325-.1239529.2479057-.1922112.3596001-.1177464.1858521-.2665195.3408318-.4461689.4896049-.2976971.2480545-.5331917.4154434-.9114056.3906212-.2603168-.0186119-.4152946.0308762-.6383801.1611862-.2666721.1487732-.5331917.2665215-.6819649.5516548-.1239529.2418518-.1487732.5145798-.3161621.7376633-.1860046.2480583-.4773464.4897575-.6881714.7129936-.136364.1363602-.2727261.2354927-.3347778.4214973-.0743122.2354965.0248203.4773483-.0124111.7067871-.0122585.0681076-.1362114.2479057-.1610317.2851372-.1178989.1982613-.2046204.4277039-.2542629.6571465-.0805149.3346252-.1115417.700428-.1177464 1.0476189-.0124111.5516548-.0620518 1.1529541-.0062065 1.7047615.0620537.5888901.440115 1.1715736.6447353 1.7108192.0929279.2480545.2354946.3347778.3782139.526989.1301594.1797981.1610336.4028816.3099575.5890388.1672382.2044678.4028835.3594475.576479.5702705.2789307.3347778.5578613.6447372.8616142.9607468.2170296.2294426.3595982.5021667.5021667.7873039.1425686.2666702.2170296.607502.4463196.8121223.0682564.0558472.1673889.092926.22929.1549797.1178989.1301575.1673889.3658028.210825.526989.1115417.3966789.1549778.7500725.390625 1.103466.1487732.2292862.347187.4401131.4214993.7128372.0619011.22929.0682564.4463234.1549778.6695557.1611843.4401169.1860046.7066345-.2541103.9669495-.1611843.0930786-.347187.1984177-.5269871.2480621-.1735935.0434341-.5207825-.012413-.6633511.1053314-.22929.1735992-.2106743.768692-.1735935 1.0229492.0434361.272728.1549778.5144272.1611843.7933578.0124092.3223724-.1301594.4897614-.2106743.7748947-.0496426.1737442-.0372314.2790833-.1303101.4340591-.1362114.2416992-.3966789.4028854-.6135578.5702744-.6199131.4773483-1.388752.6447372-2.027132 1.0972595-.3099556.2230835-.6509399.4152985-.8617649.7314606-.1177464.1735916-.2975464.390625-.3409824.5888824-.04949.2542648.0248203.58284.0248203.8431549 0 .1301575.0186157.3099518-.0310268.4339066-.0867214.2418518-.2789307.272728-.4649353.3968277-.3223667.2168808-.1920586.6137161-.1982632.9546967 0 .1982651.0805168.6818161.4277039.6383743.136364.0868759.2665215.1860046.3904743.2914963.2046204.1239548.4092407.2479019.6075039.3718567.2046204.1860046.2418518.4773483.4588814.663353.1425686.080513.2789307.1611786.4152946.2479019.1177464.0868759.2354946.1735992.353241.2603149.161335.0372314.3163147.0868759.4712925.1549835.1796494.1240997.3594475.2542572.5392475.378212.2851353.1673889.5580139.3347778.8431492.5021667.2044697.1239548.440115.2665176.669405.3470383.1425686.0124054.2665215.0620499.3782139.1549759.092926.1241074.1922092.2418518.3037529.3471909.3409824.3409805.6323242.471138 1.1096706.4525223.5268364-.0124054 1.2150078-.092926 1.6737366.2232361.1611843.1115417.316164.2975464.5145779.3595963.2975464.0991364.619915-.0186157.9050503-.0558395.4525261-.0620575.923666-.0062103 1.3823967-.0186157.2975464-.012413.3595982.1115417.6323242.2170258.1487751.0494919.2975483.0805206.4587307.092926.1487732.024826.2789326.0991364.3842678.2232361.3285732.2292938.5950947.2541122.9795132.2416992.2913418-.0186157.4152946-.1177444.6757622-.2479019.1115417-.0434341.2168789-.0930786.3285732-.1363602.1425667-.1241074.2975464-.2356491.4585762-.3285751.5828362-.2852859.8245354-1.0105438 1.4196281-1.3267059.3844223-.2106705.9238205-.0991287 1.3391113-.0991287.1611862.0062027.3223686 0 .4835548 0 .6445808 0 1.2212105.0062027 1.8535347-.1301575.6942253-.1549759 1.4380913.0062027 2.1448784-.0186157.5454521-.0248184.9795151-.2416992 1.4753265-.4154434.4092369-.1362152.7686844-.1053391 1.1841316-.1053391.4401131 0 .6880188-.1301575 1.0103874-.3966751.2294388-.1860046.4401131-.3285751.7191963-.4463196.3532448-.1487808.6569939-.2170334 1.0414162-.2480621.4090881-.0310211.6323242-.1053314.8926392-.4463196-.043438-.1363602-.4587326-.1239548-.6075058-.1673889-.3409805-.1053391-.6881714-.2230835-1.0414124-.3099594-.2851372-.0743103-.5083733-.0432816-.7624817-.1922073-.2728767-.1610336-.5890388-.2603149-.8865852-.365654-.4277077-.1611786-.8121262-.378212-1.2025986-.6137085-.2603149-.1673889-.1860046-.2232361-.0062065-.4339066.3037529-.3595963.3533936-.8803787.3409843-1.3391113-.0062065-.5021667-.1177483-.9483337-.0124092-1.4380951.0620499-.2975464.2479019-.5269852.3720093-.8059158.123951-.2852859.1610298-.5021667.1549759-.8245316-.0062027-.2417068-.0806656-.5702744.0370789-.7873077.1303101-.2354965.4092407-.3533936.5083733-.6199112.0992851-.272728.0186157-.5826874.0372314-.8678207.0186157-.3595963.1982651-.6323242.1797981-.9981308-.0310249-.4649353.2665215-.9731522.8057671-.7810974.3596001.1239548.2108269.7935104.2108269 1.1034698 0 .3844147.0744629.8678131-.0124092 1.2522354-.043438.1922073-.1920586.3099594-.2665215.483551-.123951.272728-.0558472.6323242-.0558472.9298706 0 .5207825-.0494919 1.0414124.0806694 1.5497894.0743103.2727203.1177444.5083694.0743103.7935028-.0681076.4525299-.3161621.7004318-.5454521 1.0724411-.1487732.2416992-.3161621.4649353-.4773483.7004318-.0372314.0558472-.1301575.1425705-.123951.2294388.0124092.1363678.2354965.3161621.3284225.4090881.0930786.0930786.1860046.1611862.254261.2728806.0805168.1425705.0496407.1610336.1984138.2479019.322216.1982651.8119736.0310287 1.1343422-.0682526.3037491-.0991364.6695557-.0805206.9857178-.0619049.1673889.0062103.3161621.0432892.471138.1115417.1425705.0619049.2851372.1984177.4277077.2292938.3037491.0744629.7562752.0063553 1.0538216.0124054.1303101 0 .2604675.012413.390625-.0060501.2230835-.0248184.4028854-.1613388.619915-.2170334.3223686-.080513.6880188-.0744629 1.0165939-.1239471.2975464-.0496445.5642166-.1427231.861763-.1549835.2913437-.0186157.5640678-.2046204.8243828-.3285675.3782158-.1735992.5580139-.3347778.8431511-.6137085.1673889-.1611862.3596001-.3223724.4152946-.5580139.0434341-.1610336.0124092-.3408356.0124092-.5082245 0-.1860046.0930786-.6509399-.0310249-.8121262-.1239548-.1673889-.5826836-.0868683-.743866-.080513-.4090919.0060501-.8678207-.0868759-.9298706-.5766296-.0248222-.2416992-.0186157-.3720093-.1239548-.5950928-.123951-.2603149-.043438-.5702744-.1797981-.8183289-.1177483-.2168808-.3966789-.272728-.4587326-.5144272-.0434341-.1613388-.0124092-.4154434-.0062027-.5890427.0124092-.2416992.1053352-.3966751.2418518-.6012955.1920547-.2913437.3223648-.3842697.6569939-.3966751.1611824-.0062103.4587288-.0620575.5518074.1177444.092926.1735916-.0558472.4525223-.0744629.6323242-.0310249.2106705-.0619011.4897537 0 .6880188.0744629.2480545.347187.3223724.4649353.5393982.0620537.1177521.0620537.2479095.1425667.3720093.043438.0743103.1179008.1363602.1673889.2106781.148777.2170258.3409843.378212.4959641.5950928.1984138.2790833.2851372.4525223.6509399.5704193.2416992.0805206.4773445.1860046.7376595.1984177.3409843.0184631.6881714 0 1.0290031-.012413.1241074 0 .2170334-.0124054.3347778.024826.1425705.0494843.2046204.1982574.3471909.2541046.254261.092926.5021667-.0806656.7748909-.0930786.2789307-.0124054.5950928.1241074.7067871.3968353.1301575.3285675.1115417.7190399.092926 1.0600281-.0062027.1177444-.0248184.2046204-.0062027.3161621.0682564.3594437.3658028.3594437.5888863.564064.1673889.1549835.0620537.5642242-.0186157.7624817-.0681038.1489258-.1673889.192215-.2106743.3720093-.0434341.1611862 0 .3347778-.0062027.4897614-.0310287.743866-.5518112 1.3513718-.5207825 2.1076431.0124092.2975464.0620499.6819687.1860046.9546967.1549759.3471832.514576.3780594.712841.0186157.0930786-.1673889.0372314-.2292938.0372314-.3842697 0-.1798019.0681038-.3595963.1425667-.5207825.1549797-.3347778.3347778-.5331955.3720093-.9052048.0184631-.1796494.0494919-.3966751.1115417-.5764771.092926-.2541122.1984138-.272728.4525261-.3222122.390625-.0806732.8245354-.1489258 1.1963921-.3039093.3285713-.1363602.6385307-.4152908.8183289-.7066345.1549797-.2665176.2170296-.471138.5580139-.4401093.3408318.0246658.712841.0558472.973156-.1735992.1116943-.0868683.1922112-.2232361.2789307-.3285675.2170296-.2541122.4339104-.4339142.7129936-.6013031.2230797-.5207825.6818123-.756279 1.0476189-1.1593094.0991287-.1177521.1860046-.2106781.272728-.3408356.1116867-.1860046.1301575-.3968277.2294388-.5828323.092926-.1672363.2913437-.3966751.5206299-.3780594.954689.0618973.1860046 1.4506531.4092407 1.9402542.0556946.1239548.2416992.2108231.4090881.2170334 5.4863052-6.1867371 8.8213654-14.3200798 8.8213654-23.2405815-.0000002-2.4053456-.2416994-4.7546917-.7066347-7.0236737z" fill="#4da0dc"/><path d="m66.6663818 26.0998421c-.1611862-.0558472-.3037491-.1796474-.4649353-.2168789-.1239548-.0248203-.2603149.0124092-.3844223-.0310268-.1611786-.0558472-.2106705-.1611824-.3037491-.2913418-.1796494-.2418499-.483551-.3844185-.483551-.7005806-.0060577-.136364-.0370789-.3346272-.012413-.4649353.0310287-.1487732.1673889-.22929.2046204-.3718586-.1115417-.2170296-.7376633-.0992832-.9298706-.0310268-.1982651.0682583-.347187.1611843-.5702705.1177483-.2851372-.0619011-.5331955-.3594475-.7252541-.5640678-.0992813-.1177464-.1735916-.3223667-.3099556-.4030342-.2170296-.1239529-.4959602-.136364-.7191963-.2603168-.2851372-.1549778-.5702744-.3347778-.7500725-.607502-.1115417-.1549797-.2046204-.3223686-.3285713-.4773464-.1735954-.2168789-.4277077-.3037529-.6447372-.4711418-.123951-.0991306-.2230835-.2294407-.3409843-.3347778-.2541084-.2230835-.5330391-.2106743-.8305855-.347187-.1860046-.0805168-.3223686-.185854-.483551-.3099575-.1922112-.1486225-.3782158-.2354946-.6075058-.3223686-.3533936-.1362114-.6695557-.2789307-.9733086-.5020142-.1301575-.0930786-.2046204-.1549797-.3347778-.1984158-.2789307-.0805168-.4587288-.2727261-.700428-.4152946-.1860046-.1116924-.3471909-.2046204-.5207825-.3347778-.1425705-.1177464-.2665215-.1549778-.3409843-.3223667-.0494881-.1053371-.0743103-.3409824-.1858521-.3904743-.0930786-.0434361-.1984138.0124111-.3039055-.0372295-.1982613-.0992832-.3036003-.2480583-.4277039-.4216518-.1115417-.1549778-.2044678-.1734428-.3656502-.2541103-.1735954-.0806675-.3285751-.1984138-.4897575-.2975464-.272728-.1549778-.2851372-.3966789-.3596001-.6881714-.0248184-.1053371-.0496407-.2106743-.0743103-.3160114-3.8434372-1.4444485-8.0031891-2.237956-12.348793-2.237956-1.9588737 0-3.8744659.1611834-5.7466164.4711409-.0060539.0124102-.0184669.0248203-.0308762.0372305-.1241035.1177473-.2356453.1798-.266674.3594475-.0248184.1611843.0248222.3347778.012413.4959621-.012413.136363-.0681076.3720083-.1922112.4525251-.092926.0558462-.2975464.0558462-.4090881.0992832-.1487732.0556955-.2727242.1610317-.3904724.2603149-.1179008.092927-.266674.136363-.3533936.2603149-.0868721.1241055-.0992851.2790833-.1177483.4277058-.0310249.1860046-.0806694.2975464-.2046204.4340611-.1673889.1858521-.123951.4090881-.043438.6447353.0868759.2354946.2480583.4585781.403038.6507874.1053352.1365147.092926.1241055.1363602.2542629.043438.1053371-.0186157.0556946.0929298.1301575.2170296.1425686.4959602.0186157.7067871.1922092.092926.0743122.1549759.1734428.2603149.2354946.092926.0558472.1797981.0681057.2727242.1239529.1984138.1115417.2851372.4339104.4090881.619915.1241035.1984138.0620537.3533936.0930786.5764771.0496407.390625.3718567.4649353.7376633.4959621.1673889.0186157.390625-.0434361.5518074.0124092.0681076.0186157.2044678.1735954.2230835.1860046.0806694.0681057.2665215.1487732.3099594.2479057.0248184.0434361 0 .1365147 0 .1735935-.012413.1427212.0062027.4339104-.1239548.5456047-.0434341.0372314-.2108231.0805149-.2541084.0991306-.1487732.0682583-.4897575.1549797-.5766296.2913418-.1115417.1549797.0124092.3471889.0930786.483551.123951.2170315.216877.3409843.483551.390625.1053352.0248203.2416992.0432854.3470345-.0062046.1054878-.0558472.1611862-.1735954.2728806-.2170315.0991287-.0434361.2230835-.04949.3285713-.0682564.0991325-.018465.1920586-.0308743.2665215-.1053371.0619011-.0496426.092926-.1487732.1549759-.1922092.1177483-.0929279.7748947-.1610336.8307419-.0248222.0681038.1427212.0060539.4961147-.0868721.6138611-.1177483.1425686-.2230873.1549778-.2294426.3532429-.0124092.3658028.161335.5331917.2914925.8493538-.4092407.3347778-.8555603.2417011-1.3329048.2541103-.1549797.0062065-.3533936.0372314-.4773483.1303101-.1425667.1053371-.1177444.22929-.0494881.3656521.0991325.210825.2541084.4649353.3966789.6447353.0806656.1053371.1735916.2170296.3037491.2541103.2354965.0682564.5642204.0248203.8059196.0186157.3161621-.0062046.619915-.0867214.9360771-.0556965.2170296.0246696.5578613.1549797.7376633-.0310249.0744591-.0744629.092926-.210825.1735916-.2789307.0867233-.0744629.2108269-.0682583.3161621-.0682583.2106743.0062065.2913437-.0062046.4463196-.1487732.2603188-.2232361.619915-.0992832.9174614-.2170296.1054878-.0372314.1798019-.0991325.2913437-.136364.1487732-.04949.2975464-.0434361.4525261-.0434361.2356453 0 .4773445.0496426.6943741-.0619011.0805168-.0434361.1301575-.0991306.2230835-.1178989.1054916-.0246696.2294426.0063572.3409843.0063572.1425667-.0063572.2604675-.0310268.3968315-.0620518.22929-.0620518.4771919-.0744629.6694031-.210825.2170296-.1549797.1735954-.440115.1673889-.6880207-.0062065-.1054878-.0062065-.1922092-.0372314-.2913418-.0370789-.1177464-.123951-.2046204-.1486206-.3161621.5702705-.0744629 1.1591606.0246696 1.7356377-.0434361.3844185-.0496426.9236679-.4649353.7067871-.8864346-.0744629-.1303101-.1860046-.2789307-.3223686-.3471889-.1611824-.0743103-.3844185-.0186157-.5580139-.0186157-.2044678.0062046-.4959602.0558472-.6818123-.0556946-.2542648-.1673889-.3658066-.5021667-.7067871-.5456028-.2230873-.0310268-.4525261-.0991325-.6571465-.2170315-.1177483-.0681057-.2168808-.1735935-.2911911-.2851372-.0868721-.1301575-.1054878-.1673889-.0434341-.2975464.0867195-.1735935.3409805-.2727261.5083694-.347187.1549797-.0681057.2479057-.0743122.4152946-.0805168.1487732 0 .3099594.0310268.4525261-.0310268.1177483-.0496407.123951-.092926.2106743-.1797981.2108231-.2106743.8245354-.1177483 1.0972595-.1053371.2480583.0062046.5083733.0496407.7500725.0248203.0868721-.0124111.1922112-.0620518.2790833-.0558472.1549759.0124111.2665215.1487732.3718567.2356472.117897.0991306.1860046.1549778.3409843.1301575.1673889-.0310268.3285713-.1053371.5083694-.0682583.1984177.0496426.241703.2604675.3285751.40909.092926.1549778.2106743.2480564.3347778.3658028.2479057.2232361.3470345.3844204.353241.7254028-.3161621.1734428-.8616142.2354946-1.0600281.5330429-.1053391.1549778-.1487732.4339085-.1239548.6137085.0558472.4773464.6942253.5207825 1.0786476.5083714.1984138 0 .4649353-.0558472.6571426 0 .1798019.0556965.2354965.2230854.3471909.3532429.1486206.1737461.2913399.2418518.5082207.254261-.2541122.5082207-.9422836.9546928-1.5187607.9174614-.3409843-.0248203-.6633492.0372314-.9857178-.136364-.1734428-.0930767-.3223686-.1860027-.4401169-.347187-.0681038-.092926-.0867195-.1239529-.2106743-.136364-.0992813-.0124092-.4154434-.0310249-.5207825.0124111-.0743103.0310268-.1363602.1177483-.1984138.1611843-.1487732.0991306-.3595963.1177464-.4463196.2975464-.0867195.1735935-.0991325.4339104-.1053352.6261196-.012413.4152927.2354927.5454521.5950928.5950928.2479057.0372314.483551.1301575.7314568.1425686.1241035.0124111.254261-.0062046.378212-.0062046.2975464 0 .6509399-.0494919.9422836 0 .1611824.0310249.2851372.123951.4463196.1735935.1982651.0681057.3842659.0620518.6012993.0681057.216877.0063572.3533936.0311775.5640678.1116943.1549759.0620518.2727242.0805149.4401131.0805149.7624817-.0184631 1.525116-.0060539 2.2875977-.0060539.2975464 0 .6012993.018465.8988457 0 .0867233-.0063553.2541122-.0682564.3285751-.0063553.0743103.074461.1115417.3039017.1611824.3968296.0619011.1239529.0991325.1860046.092926.3223667-.0062065.1177483-.0186157.22929.0062065.3471889.0248184.1549778.1115417.2975464.1177483.4585781.0124092.2666721-.0122604.2852879-.1920586.4897575-.1241074.1365147-.3409843.1735935-.5021667.2790813-.1549797.0991325-.2479057.185854-.4401169.2044697-.1487732.0124111-.2914925.0062046-.4401131 0-.3347778-.0062046-.6819687.0434361-1.0167465.0248203-.1797981-.0062046-.3904724-.0558472-.5578613-.1177464-.1984138-.0682583-.3533936-.0867214-.5518074-.0930786-.2603149-.0124111-.4587326-.0805168-.6818161-.1920586-.2170296-.1054878-.4649353-.2170296-.7067871-.2356453-.1611824-.0062065-.22929-.0496426-.3658028-.1425686-.0619011-.0432854-.1362114-.0867214-.1982651-.1425686-.0310249-.0310249-.1177483-.1549778-.1673889-.1798-.2170296-.092926-.4028816.0992832-.5331917.2480564-.2044678.22929-.3966789.4587307-.6137085.6818161-.0991325.0992832-.1734428.1860046-.3161621.2170296-.1301575.0248222-.3532448.0124111-.4896049-.0062046-.1860046-.0372314-.3223686-.1860046-.483551-.2913418-.1922112-.1301575-.3409843-.1984138-.5704269-.1984138h-1.0600281c-.1797981 0-.365654 0-.5454521-.0062065-.0620499 0-.1735916-.0248203-.2294388 0-.1673889.0558472-.2913437.3844204-.3347778.5331936-.1425705.5083714.2170296 1.016592.5704231 1.3451653.0619011.0558472.1301575.1363621.216877.1735935.1116943.0496426.2542648.0372314.3596001.0991325.2479057.1487732.2294426.483551.5393982.5393982.3966789.0743103 1.0600281.0246696 1.2520866.483551.0372314.0867214.0310249.1982632.0682564.2913399.0496445.1425705.1301575.2230873.2230873.3409843.1303062.1673889.1116905.3594475.2418518.5392456.2106705.2975464.5454483.5207825.7997131.7810974.1735916.1798019.3408318.2975502.5826797.3596001.4711418.1239548 1.0290031.0496407 1.5063515.0556946.3223686 0 .619915-.0619011.9484863-.0619011h4.221653c.1797981 0 .3037529.0310287.4401131-.0868721.1673889-.1487732.272728-.4028816.3223686-.6137085.0248222-.123951.043438-.2665215.0310249-.3966789-.0186157-.1797981-.0991325-.2913399-.1797981-.4463196-.136364-.2727242-.0558472-.6509399-.0620537-.9546909 0-.2418518 0-.3037529.1303101-.5145779.0432854-.0556946.0619011-.1053371.1053391-.1611843.1363602-.1611824.347187-.1984138.514576-.3223667.1858521-.136364.1734428-.2851372.1673889-.4959621-.0063553-.2230835-.0063553-.4461689-.0063553-.6756096 0-.1116924-.0246696-.2479057-.0060539-.3595982.0432854-.2541103.22929-.3595982.1858521-.6385307-.0062065-.0681057-.0619011-.396677-.1549797-.483551-.0432854-.0432854-.2230835-.0681057-.2603149-.0867214-.1797981-.0806675-.4277039-.2789307-.4401131-.4897556-.012413-.1920586.1611824-.4959621.1860046-.7004318.0122566-.1303082.0062027-.2665195.0062027-.3968296 0-.1920586.0060539-.396677 0-.5950928-.0062027-.4525261-.5021667-.5083714-.8059158-.7500725-.1115456-.0867214-.2975502-.2604656-.3347816-.4090881-.0372276-.1673889.1611862-.3471889.2851372-.4464722.1798019-.1425686.3223686-.1363621.5331955-.1301575.1673889.0062046.3904724-.0556946.5392456.0310268.4401131.2480564.2665215.9484863.2665215 1.3513699 0 .1673889-.0556984.4525261.0063553.6138611.0556946.1362114.2479057.2603149.3470383.3656521.1363602.1425686.2294388.2170296.4401131.2418518.1549797.0246696.3347778.0308743.4959602.0184631.2108269-.0124092.3658066-.092926.3658066-.3160114-.0062065-.2170296-.1054878-.4402657-.2851372-.558012-.2046204-.1425686-.3285713-.2665215-.4463196-.4897575-.1116943-.2044678-.0682564-.4277039-.0682564-.6569939 0-.1116924-.0620537-.3968296.0496407-.4773464.0867195-.0558472.4339104-.0063553.5268364-.0063553.1860046.0063553.4525261.0248203.619915.1303082.1177444.0743122.1549759.2168789.2603149.2789307.254261.1673889.6262703.0867214.9114075.0744629.3656502-.0124111.5764771.1920586.8305855.440115.1487732.1425686.2790833.2603149.3471909.45858.1363602.3782139.378212.6633492.6695557.9362278.2665215.2541103.3904724.5826817.6447334.8492031.1798019 0 .2354965.0620518.4152946.0558472.3099594-.0062065.3595963.0372314.5083694.303751.0681076.1301575.1611862.2479057.2665253.3470383.0434341.0620518.0867233.1303082.1239471.1922092.2046204.1116924.4711456-.2417011.5580139-.3842678.1115494-.1673889.1301575-.3037529.1363678-.5021667 0-.1115437-.0682602-.3658047-.0310287-.4525261.1363678-.3347778.7935104-.303751 1.0662384-.2913418.1363602 0 .4214935.0743122.4897537-.0806675-.0930789-.1672386-.1363604-.235495-.3161624-.2975467z" fill="#4da0dc"/><path d="m5.6915522 45.0754814c.2170305.1239548.3658037.0805168.5083718-.1487732.1115422-.1860046.1922097-.3720093.3223677-.5456009.2851362-.3904724.613709-.4401169 1.0724392-.4401169.0991321 0 .2170305-.0248184.3161626.012413.136363.0434341.1922092.1611824.347188.1860046.4090891.080513.8119726.080513 1.2150078.0186157.3409834-.0558472.5144262-.3347778.712841-.6014519.254262-.3470383.4463196-.7685356.5456028-1.1901855.0619011-.2541122.0496416-.5145798.0432854-.7686882-.0060539-.3285751.0868731-.4711418.1860046-.7624817.0558462-.1860046.1487732-.3842697.1611834-.5702744.0124111-.2604675-.0619001-.5331917.0682573-.7686882.0805159-.1425667.2044687-.2479057.2727261-.3968277.1053371-.2044716.2356462-.4339104.3161621-.6447372.0248213-.0743103.0248213-.1610298.0558472-.2354927.0619001-.1487732.1487732-.2541122.1672373-.4215012.0187674-.1425667-.0308743-.2975464-.0184641-.4402657.0184641-.1796494.1301575-.3408318.1487732-.5206299.0186157-.1301575-.0186157-.2665215-.0062056-.3968315.0496416-.5454521.3037519-1.1157227.4897566-1.6178894.092927-.2479057.1920586-.4092407.3842688-.5950928.1735935-.1673927.4030352-.3347816.5207825-.5518112.1239519-.22929.1301575-.5206299.2292891-.7686882.0992832-.2416992.2665205-.3966751.4463205-.5826797.1673889-.1798019.2851362-.3658066.3968296-.5888901.1239529-.2479057.3037519-.4092407.5021667-.6075039.1734428-.1673889.3966789-.3347778.4897566-.5578613.0681057-.1489258.0681057-.3223686.1177473-.4773464.04949-.161335.0681057-.3039036.092927-.4649353.0372305-.2975483.1549778-.526989.2913418-.7873039.1054878-.1984158.0868721-.483551.2294407-.6447353.1673889-.1984138.4463196-.3720093.6509399-.5269871.2354946-.1735935.4339104-.3844204.6445827-.5826836.1549797-.1487732.297699-.2727261.4154453-.4525242.1425686-.2232361.3037529-.4028854.4587307-.6137104.1239529-.1549778.1549797-.4030342.3223686-.5207825.1735935-.1239529.5082207-.0310249.6012974-.2354946.0186157-.0434361 0-.0992832.0124111-.1425686.0248203-.0806675.0867214-.161335.1177483-.2480564.123951-.3409824.0496407-.7128391.1549778-1.0600281.0434361-.1611843.1177483-.3533936.2106743-.4897575.1054878-.1425667.3163128-.2541103.3782139-.4277039.0248203-.0867214.0062046-.22929.0186157-.3223667.0186157-.1177483.0558472-.2046204.0868721-.3223686.0432854-.1860046.0619011-.3161621.1796494-.4773464.0806675-.123951.1673889-.2416992.2480564-.3658028.1115417-.1673889.2230835-.3223686.2975464-.5082207.0867214-.1984158.1922092-.4340611.1922092-.6571465 0-.1177464-.0434361-.2479038.0124111-.3595982.0805149-.1734428.322216-.2541103.4525242-.3842678.1673889-.1611843.3036003-.3223667.4834003-.4711418.2046204-.1673889.3595982-.3658028.5021667-.5766277-9.3544083 5.5235331-15.9193549 15.2747691-17.0662565 26.6254351z" fill="#4da0dc"/><g fill="#344d5b"><path d="m73.0792236 61.697773c-5.1657639 12.8828697-17.7821388 21.9833336-32.5179024 21.9833336-19.3559875 0-35.0439949-15.687851-35.0439949-35.0438385 0-7.8566322 2.5766048-15.1040497 6.9427338-20.9425468-1.6499252 4.0615997-2.5511951 8.4912528-2.5511951 13.1366576 0 19.3433609 15.6880074 35.0439186 35.0312881 35.0439186 11.5373974 0 21.7674351-5.5720062 28.1390705-14.1775245z" opacity=".15"/><path d="m38.1048584 86.2461624-.0000038.0000076c-1.4799957.51371-3.0962143-.2696228-3.6099243-1.7496185l-4.8445568-13.9571457 5.3595409-1.8603058 4.8445587 13.9571457c.51371 1.4799958-.269619 3.0962067-1.7496147 3.6099167z"/><path d="m24.6797714 63.2030678-2.2589226.7191391c-.4453297.1417732-.6914959.6177635-.5497017 1.0631599l1.7138462 5.383461c.1417961.4453964.6178322.6914749 1.0631618.5496979l2.2589226-.7191391c.4454021-.1417923.6914959-.6177597.5497017-1.0631561l-1.7138462-5.383461c-.141796-.4454003-.6177615-.691494-1.0631618-.5497017z"/><circle cx="63.195" cy="54.69" r="5.461"/><path d="m68.2053604 74.2792511-5.7106933-18.0537071-.7554321-2.3881836-5.9197388-18.7142334c-.2238159.1032715-.4663696.168457-.7147217.1795654-.0845947.0037842-.164917-.0079346-.2457886-.0175781-1.6182251 4.7657471-7.6824951 18.6806641-24.6002197 23.8865967l1.3295288 4.2030029.7554321 2.3881798 1.3294678 4.2030029c15.9607544-5.1866455 28.4489136 1.6461182 33.1660156 4.8989258.3483276-.3739014.8522339-.5871582 1.3661499-.5855713z"/></g><path d="m55.3534966 33.6498604c-.8723106.2759323-1.3558006 1.2067528-1.0798569 2.0791016l12.5276451 39.6042519c.2759323.8723068 1.2067795 1.3557434 2.0790863 1.0798111.8723145-.2759247 1.3558044-1.206749 1.0798721-2.0790558l-12.5276451-39.6042519c-.2759437-.8723488-1.2067909-1.3557854-2.0791015-1.0798569z" fill="#de594e"/><path d="m29.1108932 72.3580093 9.1431847-2.8921738c.3140869-.0993576.488163-.4345093.3888092-.7485962l-3.6003761-11.3820495c-.0993538-.3140831-.4345093-.4881592-.7485962-.3888092l-9.1431847 2.8921814c-1.5505753.4904785-2.4099522 2.1450806-1.9194736 3.6956558l2.1839809 6.9043198c.4904785 1.5505753 2.1450806 2.4099503 3.6956558 1.9194717z" fill="#de594e"/><path d="m92.63871 18.4500542h-27.5965271c-1.0198669 0-1.8468781.8267841-1.8468781 1.8466511v15.623064c0 1.0198669.8270111 1.846653 1.8468781 1.846653h3.018898v6.3799591l3.450882-6.3799591h21.1267471c1.0198669 0 1.8468781-.826786 1.8468781-1.846653v-15.623064c0-1.019867-.8270111-1.8466511-1.8468781-1.8466511z" fill="#de594e"/><g fill="#ededed"><path d="m66.982544 22.287884h23.798975v2.065588h-23.798975z"/><path d="m66.982544 26.661928h23.798975v2.065588h-23.798975z"/><path d="m66.982544 31.035973h23.798975v2.065588h-23.798975z"/></g></svg>